# This file uses centimeters as units for non-parametric coordinates.

v -105.961102 0.062527 20.649383
v -70.707050 0.062527 20.649383
v -105.961102 0.062527 -20.547774
v -70.707050 0.062527 -20.547774
v -35.322048 0.062527 20.649383
v -35.322048 0.062527 -20.547774
v 0.069695 0.062527 20.649383
v 0.069695 0.062527 -20.547774
v 35.448061 0.062527 20.649383
v 35.448061 0.062527 -20.547774
v 70.833080 0.062527 20.649383
v 70.833080 0.062527 -20.547774
v 106.161968 0.062527 20.649383
v 106.161968 0.062527 -20.547774
v -318.157523 0.062527 20.649383
v -282.768679 0.062527 20.649383
v -318.157523 0.062527 -20.547774
v -282.768679 0.062527 -20.547774
v -247.383677 0.062527 20.649383
v -247.383677 0.062527 -20.547774
v -211.991934 0.062527 20.649383
v -211.991934 0.062527 -20.547774
v -176.613568 0.062527 20.649383
v -176.613568 0.062527 -20.547774
v -141.228567 0.062527 20.649383
v -141.228567 0.062527 -20.547774
v 141.477495 0.062527 20.649383
v 141.477495 0.062527 -20.547774
v 176.862506 0.062527 20.649383
v 176.862506 0.062527 -20.547774
v 212.254245 0.062527 20.649383
v 212.254245 0.062527 -20.547774
v 247.632603 0.062527 20.649383
v 247.632603 0.062527 -20.547774
v 283.017620 0.062527 20.649383
v 283.017620 0.062527 -20.547774
v 318.419821 0.062527 20.649383
v 318.419821 0.062527 -20.547774
vt 0.006692 0.994939
vt 0.006692 0.573948
vt 0.411100 0.573948
vt 0.411100 0.994939
vt 0.006692 0.994939
vt 0.006692 0.573948
vt 0.411100 0.573948
vt 0.411100 0.994939
vt 0.006692 0.994939
vt 0.006692 0.573948
vt 0.411100 0.573948
vt 0.411100 0.994939
vt 0.006692 0.994939
vt 0.006692 0.573948
vt 0.411100 0.573948
vt 0.411100 0.994939
vt 0.006692 0.994939
vt 0.006692 0.573948
vt 0.411100 0.573948
vt 0.411100 0.994939
vt 0.006692 0.994939
vt 0.006692 0.573948
vt 0.411100 0.573948
vt 0.411100 0.994939
vt 0.006692 0.994939
vt 0.006692 0.573948
vt 0.411100 0.573948
vt 0.411100 0.994939
vt 0.006692 0.994939
vt 0.006692 0.573948
vt 0.411100 0.573948
vt 0.411100 0.994939
vt 0.006692 0.994939
vt 0.006692 0.573948
vt 0.411100 0.573948
vt 0.411100 0.994939
vt 0.006692 0.994939
vt 0.006692 0.573948
vt 0.411100 0.573948
vt 0.411100 0.994939
vt 0.006692 0.994939
vt 0.006692 0.573948
vt 0.411100 0.573948
vt 0.411100 0.994939
vt 0.006692 0.994939
vt 0.006692 0.573948
vt 0.411100 0.573948
vt 0.411100 0.994939
vt 0.006692 0.994939
vt 0.006692 0.573948
vt 0.411100 0.573948
vt 0.411100 0.994939
vt 0.006692 0.994939
vt 0.006692 0.573948
vt 0.411100 0.573948
vt 0.411100 0.994939
vt 0.006692 0.994939
vt 0.006692 0.573948
vt 0.411100 0.573948
vt 0.411100 0.994939
vt 0.006692 0.994939
vt 0.006692 0.573948
vt 0.411100 0.573948
vt 0.411100 0.994939
vt 0.006692 0.994939
vt 0.006692 0.573948
vt 0.411100 0.573948
vt 0.411100 0.994939
vt 0.006692 0.994939
vt 0.006692 0.573948
vt 0.411100 0.573948
vt 0.411100 0.994939
vn 0.000000 1.000000 0.000000
vn 0.000000 1.000000 0.000000
vn 0.000000 1.000000 0.000000
vn 0.000000 1.000000 0.000000
vn 0.000000 1.000000 0.000000
vn 0.000000 1.000000 0.000000
vn 0.000000 1.000000 0.000000
vn 0.000000 1.000000 0.000000
vn 0.000000 1.000000 0.000000
vn 0.000000 1.000000 0.000000
vn 0.000000 1.000000 0.000000
vn 0.000000 1.000000 0.000000
vn 0.000000 1.000000 0.000000
vn 0.000000 1.000000 0.000000
vn 0.000000 1.000000 0.000000
vn 0.000000 1.000000 0.000000
vn 0.000000 1.000000 0.000000
vn 0.000000 1.000000 0.000000
vn 0.000000 1.000000 0.000000
vn 0.000000 1.000000 0.000000
vn 0.000000 1.000000 0.000000
vn 0.000000 1.000000 0.000000
vn 0.000000 1.000000 0.000000
vn 0.000000 1.000000 0.000000
vn 0.000000 1.000000 0.000000
vn 0.000000 1.000000 0.000000
vn 0.000000 1.000000 0.000000
vn 0.000000 1.000000 0.000000
vn 0.000000 1.000000 0.000000
vn 0.000000 1.000000 0.000000
vn 0.000000 1.000000 0.000000
vn 0.000000 1.000000 0.000000
vn 0.000000 1.000000 0.000000
vn 0.000000 1.000000 0.000000
vn 0.000000 1.000000 0.000000
vn 0.000000 1.000000 0.000000
vn 0.000000 1.000000 0.000000
vn 0.000000 1.000000 0.000000
vn 0.000000 1.000000 0.000000
vn 0.000000 1.000000 0.000000
vn 0.000000 1.000000 0.000000
vn 0.000000 1.000000 0.000000
vn 0.000000 1.000000 0.000000
vn 0.000000 1.000000 0.000000
vn 0.000000 1.000000 0.000000
vn 0.000000 1.000000 0.000000
vn 0.000000 1.000000 0.000000
vn 0.000000 1.000000 0.000000
vn 0.000000 1.000000 0.000000
vn 0.000000 1.000000 0.000000
vn 0.000000 1.000000 0.000000
vn 0.000000 1.000000 0.000000
vn 0.000000 1.000000 0.000000
vn 0.000000 1.000000 0.000000
vn 0.000000 1.000000 0.000000
vn 0.000000 1.000000 0.000000
vn 0.000000 1.000000 0.000000
vn 0.000000 1.000000 0.000000
vn 0.000000 1.000000 0.000000
vn 0.000000 1.000000 0.000000
vn 0.000000 1.000000 0.000000
vn 0.000000 1.000000 0.000000
vn 0.000000 1.000000 0.000000
vn 0.000000 1.000000 0.000000
vn 0.000000 1.000000 0.000000
vn 0.000000 1.000000 0.000000
vn 0.000000 1.000000 0.000000
vn 0.000000 1.000000 0.000000
vn 0.000000 1.000000 0.000000
vn 0.000000 1.000000 0.000000
vn 0.000000 1.000000 0.000000
vn 0.000000 1.000000 0.000000
s off
f 1/1/1 2/2/2 4/3/3 3/4/4
f 2/5/5 5/6/6 6/7/7 4/8/8
f 5/9/9 7/10/10 8/11/11 6/12/12
f 7/13/13 9/14/14 10/15/15 8/16/16
f 9/17/17 11/18/18 12/19/19 10/20/20
f 11/21/21 13/22/22 14/23/23 12/24/24
f 15/25/25 16/26/26 18/27/27 17/28/28
f 16/29/29 19/30/30 20/31/31 18/32/32
f 19/33/33 21/34/34 22/35/35 20/36/36
f 21/37/37 23/38/38 24/39/39 22/40/40
f 23/41/41 25/42/42 26/43/43 24/44/44
f 25/45/45 1/46/46 3/47/47 26/48/48
f 13/49/49 27/50/50 28/51/51 14/52/52
f 27/53/53 29/54/54 30/55/55 28/56/56
f 29/57/57 31/58/58 32/59/59 30/60/60
f 31/61/61 33/62/62 34/63/63 32/64/64
f 33/65/65 35/66/66 36/67/67 34/68/68
f 35/69/69 37/70/70 38/71/71 36/72/72
