# This file uses centimeters as units for non-parametric coordinates.

v -0.452957 -1.792495 -0.184629
v -0.652278 -1.716857 -0.184629
v -0.751939 -1.679038 -0.000000
v -0.652278 -1.716857 0.184629
v -0.452957 -1.792495 0.184629
v -0.353296 -1.830314 -0.000000
v 0.699878 1.115358 -0.264575
v 0.414248 1.223749 -0.264575
v 0.271433 1.277944 -0.000000
v 0.414248 1.223749 0.264575
v 0.699878 1.115359 0.264575
v 0.842693 1.061163 -0.000000
v -0.552617 -1.754676 -0.000000
v 0.596956 1.274681 -0.000000
v 0.830998 0.576225 -0.000000
v 0.612865 0.659002 0.404107
v 0.176598 0.824555 0.404107
v -0.041535 0.907332 -0.000000
v 0.176599 0.824555 -0.404107
v 0.612865 0.659002 -0.404107
v -0.462970 -0.626988 -0.000000
v -0.315118 -0.683094 -0.273905
v -0.019416 -0.795307 -0.273905
v 0.128436 -0.851414 -0.000000
v -0.019416 -0.795307 0.273905
v -0.315119 -0.683095 0.273905
v 0.252687 -0.598930 -0.000000
v 0.092406 -0.538107 0.296932
v -0.228156 -0.416460 0.296932
v -0.388437 -0.355637 -0.000000
v -0.228156 -0.416460 -0.296932
v 0.092406 -0.538107 -0.296932
v -0.559713 -0.595066 -0.000000
v -0.365735 -0.668676 -0.359358
v -0.489947 -0.312894 -0.000000
v -0.279661 -0.392693 -0.389568
v 0.022220 -0.815897 -0.359357
v 0.140909 -0.552290 -0.389568
v 0.216198 -0.889507 -0.000000
v 0.351194 -0.632089 -0.000000
v 0.022220 -0.815897 0.359357
v 0.140909 -0.552290 0.389568
v -0.365735 -0.668677 0.359357
v -0.279661 -0.392693 0.389568
vt 0.535394 0.069864
vt 0.570524 0.048384
vt 0.675353 0.321738
vt 0.586470 0.335094
vt 0.608816 0.015112
vt 0.236282 0.293508
vt 0.429453 0.048226
vt 0.324154 0.322034
vt 0.464320 0.069465
vt 0.413246 0.335251
vt 0.499690 0.076861
vt 0.499901 0.338992
vt 0.500199 0.017790
vt 0.554580 0.855442
vt 0.607635 0.889735
vt 0.499993 0.933693
vt 0.656390 0.952403
vt 0.393221 0.888840
vt 0.446333 0.854825
vt 0.500531 0.844382
vt 0.416468 0.760401
vt 0.499811 0.752447
vt 0.324941 0.784182
vt 0.786459 0.820694
vt 0.674180 0.784556
vt 0.582963 0.760790
vt 0.681434 0.346706
vt 0.210670 0.318949
vt 0.191220 0.420850
vt 0.690275 0.424809
vt 0.589179 0.358240
vt 0.593051 0.427652
vt 0.499961 0.361120
vt 0.499930 0.429255
vt 0.410436 0.358405
vt 0.406991 0.427788
vt 0.317585 0.346860
vt 0.310184 0.425089
vt 0.406423 0.452923
vt 0.499924 0.452806
vt 0.309976 0.452367
vt 0.789052 0.452995
vt 0.690240 0.452134
vt 0.593498 0.452761
vt 0.789892 0.318176
vt 0.808205 0.420842
vt 0.211227 0.453006
vt 0.763330 0.293361
vt 0.212321 0.818670
vt 0.341895 0.953974
vt 0.391728 0.014561
vn 0.411287 -0.310660 -0.856932
vn -0.513843 0.040406 -0.856933
vn -0.498905 0.088261 -0.862151
vn 0.431858 -0.264943 -0.862151
vn -0.976407 0.215939 -0.000000
vn -0.964286 0.264863 -0.000000
vn -0.513843 0.040406 0.856932
vn -0.498905 0.088261 0.862151
vn 0.411287 -0.310660 0.856932
vn 0.431858 -0.264943 0.862151
vn 0.873851 -0.486193 0.000000
vn 0.897239 -0.441545 0.000000
vn -0.354791 -0.934946 0.000000
vn 0.575643 0.250013 -0.778543
vn -0.264859 0.568964 -0.778543
vn 0.354791 0.934946 -0.000000
vn -0.685109 0.728440 -0.000000
vn -0.264859 0.568964 0.778543
vn 0.575643 0.250013 0.778543
vn 0.995893 0.090537 0.000000
vn 0.471162 -0.167597 0.865978
vn 0.938609 -0.344983 0.000000
vn -0.463733 0.187175 0.865978
vn -0.931180 0.364561 -0.000000
vn -0.463733 0.187175 -0.865978
vn 0.471162 -0.167597 -0.865978
vn -0.506674 0.063907 -0.859766
vn -0.970768 0.240021 0.000000
vn -0.970768 0.240021 0.000000
vn -0.506674 0.063907 -0.859766
vn 0.421515 -0.288319 -0.859766
vn 0.421515 -0.288319 -0.859766
vn 0.885609 -0.464433 0.000000
vn 0.885608 -0.464433 -0.000000
vn 0.421515 -0.288319 0.859766
vn 0.421514 -0.288319 0.859766
vn -0.506674 0.063907 0.859766
vn -0.506674 0.063907 0.859766
vn 0.431858 -0.264943 0.862151
vn 0.897239 -0.441545 0.000000
vn -0.498905 0.088261 0.862151
vn -0.964286 0.264863 -0.000000
vn -0.498905 0.088261 -0.862151
vn 0.431858 -0.264943 -0.862151
vn -0.313247 -0.949333 0.025372
vn -0.313247 -0.949333 0.025372
vn -0.313247 -0.949333 0.025372
vn -0.313247 -0.949333 0.025372
vn 0.387991 0.921431 0.020689
vn 0.387991 0.921431 0.020689
vn 0.387991 0.921431 0.020689
vn 0.387991 0.921431 0.020689
vn -0.354305 -0.933664 0.052335
vn -0.354305 -0.933664 0.052335
vn -0.354305 -0.933664 0.052335
vn -0.354305 -0.933664 0.052335
vn 0.354469 0.934098 0.042577
vn 0.354469 0.934098 0.042577
vn 0.354469 0.934098 0.042577
vn 0.354469 0.934098 0.042577
vn -0.398020 -0.916979 0.027015
vn -0.398020 -0.916979 0.027015
vn -0.398020 -0.916979 0.027015
vn -0.398020 -0.916979 0.027015
vn 0.318948 0.947519 0.021924
vn 0.318948 0.947519 0.021924
vn 0.318948 0.947519 0.021924
vn 0.318948 0.947519 0.021924
vn -0.398020 -0.916979 -0.027015
vn -0.398020 -0.916979 -0.027015
vn -0.398020 -0.916979 -0.027015
vn -0.398020 -0.916979 -0.027015
vn 0.318948 0.947519 -0.021923
vn 0.318948 0.947519 -0.021923
vn 0.318948 0.947519 -0.021923
vn 0.318948 0.947519 -0.021923
vn -0.354304 -0.933665 -0.052336
vn -0.354304 -0.933664 -0.052336
vn -0.354304 -0.933664 -0.052336
vn -0.354304 -0.933664 -0.052336
vn 0.354469 0.934098 -0.042577
vn 0.354469 0.934098 -0.042577
vn 0.354469 0.934098 -0.042577
vn 0.354469 0.934098 -0.042577
vn -0.313247 -0.949333 -0.025372
vn -0.313247 -0.949333 -0.025372
vn -0.313247 -0.949333 -0.025372
vn -0.313247 -0.949333 -0.025372
vn 0.387991 0.921431 -0.020689
vn 0.387991 0.921431 -0.020689
vn 0.387991 0.921431 -0.020689
vn 0.387991 0.921431 -0.020689
s 1
f 1/1/1 2/2/2 22/3/3 23/4/4
f 2/2/2 3/5/5 21/48/6 22/3/3
f 3/51/5 4/7/7 26/8/8 21/6/6
f 4/7/7 5/9/9 25/10/10 26/8/8
f 5/9/9 6/11/11 24/12/12 25/10/10
f 6/11/11 1/1/1 23/4/4 24/12/12
f 2/2/2 1/1/1 13/13/13
f 3/5/5 2/2/2 13/13/13
f 4/7/7 3/51/5 13/13/13
f 5/9/9 4/7/7 13/13/13
f 6/11/11 5/9/9 13/13/13
f 1/1/1 6/11/11 13/13/13
s 2
f 7/14/14 8/15/15 14/16/16
f 8/15/15 9/17/17 14/16/16
f 9/50/17 10/18/18 14/16/16
f 10/18/18 11/19/19 14/16/16
f 11/19/19 12/20/20 14/16/16
f 12/20/20 7/14/14 14/16/16
f 16/21/21 15/22/22 12/20/20 11/19/19
f 17/23/23 16/21/21 11/19/19 10/18/18
f 18/49/24 17/23/23 10/18/18 9/50/17
f 19/25/25 18/24/24 9/17/17 8/15/15
f 20/26/26 19/25/25 8/15/15 7/14/14
f 15/22/22 20/26/26 7/14/14 12/20/20
s 3
f 34/27/27 33/45/28 35/46/29 36/30/30
f 37/31/31 34/27/27 36/30/30 38/32/32
f 39/33/33 37/31/31 38/32/32 40/34/34
f 41/35/35 39/33/33 40/34/34 42/36/36
f 43/37/37 41/35/35 42/36/36 44/38/38
f 33/28/28 43/37/37 44/38/38 35/29/29
s 2
f 28/39/39 27/40/40 15/22/22 16/21/21
f 29/41/41 28/39/39 16/21/21 17/23/23
f 30/47/42 29/41/41 17/23/23 18/49/24
f 31/43/43 30/42/42 18/24/24 19/25/25
f 32/44/44 31/43/43 19/25/25 20/26/26
f 27/40/40 32/44/44 20/26/26 15/22/22
s off
f 22/3/45 21/48/46 33/45/47 34/27/48
f 30/42/49 31/43/50 36/30/51 35/46/52
f 23/4/53 22/3/54 34/27/55 37/31/56
f 31/43/57 32/44/58 38/32/59 36/30/60
f 24/12/61 23/4/62 37/31/63 39/33/64
f 32/44/65 27/40/66 40/34/67 38/32/68
f 25/10/69 24/12/70 39/33/71 41/35/72
f 27/40/73 28/39/74 42/36/75 40/34/76
f 26/8/77 25/10/78 41/35/79 43/37/80
f 28/39/81 29/41/82 44/38/83 42/36/84
f 21/6/85 26/8/86 43/37/87 33/28/88
f 29/41/89 30/47/90 35/29/91 44/38/92
