# This file uses centimeters as units for non-parametric coordinates.

v -0.509175 -3.558380 0.444095
v 0.541486 -3.558380 0.444095
v -0.509175 3.558380 0.444095
v 0.541486 3.558380 0.444095
v -0.509175 3.558380 -0.399104
v 0.541486 3.558380 -0.399104
v -0.509175 -3.558380 -0.399104
v 0.541486 -3.558380 -0.399104
v -0.509175 3.558380 0.415109
v -0.509175 -3.558380 0.415109
v 0.541486 -3.558380 0.415109
v 0.541486 3.558380 0.415109
v -0.469816 3.558380 0.482561
v -0.469816 3.558380 0.415109
v -0.469816 3.558380 -0.437570
v -0.469816 -3.558380 -0.437570
v -0.469816 -3.558380 0.415109
v -0.469816 -3.558380 0.482561
v 0.491355 3.558380 0.482561
v 0.491355 3.558380 0.415109
v 0.491355 3.558380 -0.437570
v 0.491355 -3.558380 -0.437570
v 0.491355 -3.558380 0.415109
v 0.491355 -3.558380 0.482561
v 0.541486 3.558380 -0.382943
v 0.491355 3.558380 -0.382943
v -0.469816 3.558380 -0.382943
v -0.509175 3.558380 -0.382943
v -0.509175 -3.558380 -0.382943
v -0.469816 -3.558380 -0.382943
v 0.491355 -3.558380 -0.382943
v 0.541486 -3.558380 -0.382943
vt 0.389880 0.009691
vt 0.389880 0.009691
vt 0.389880 0.990309
vt 0.389880 0.990309
vt 0.610120 0.990309
vt 0.610120 0.990309
vt 0.610120 0.009691
vt 0.610120 0.009691
vt 0.374258 0.009691
vt 0.625742 0.009691
vt 0.625742 0.990309
vt 0.374258 0.990309
vt 0.374258 0.990309
vt 0.625742 0.990309
vt 0.625742 0.009691
vt 0.374258 0.009691
vt 0.406025 0.990309
vt 0.406025 0.009691
vt 0.406025 0.009691
vt 0.406025 0.990309
vt 0.389880 0.990309
vt 0.383679 0.990309
vt 0.406025 0.990309
vt 0.383679 0.990309
vt 0.610120 0.990309
vt 0.610120 0.009691
vt 0.383679 0.009691
vt 0.406025 0.009691
vt 0.383679 0.009691
vt 0.389880 0.009691
vt 0.389880 0.990309
vt 0.613743 0.990309
vt 0.406025 0.990309
vt 0.613743 0.990309
vt 0.610120 0.990309
vt 0.610120 0.009691
vt 0.613743 0.009691
vt 0.406025 0.009691
vt 0.613743 0.009691
vt 0.389880 0.009691
vt 0.597045 0.990309
vt 0.597045 0.990309
vt 0.597045 0.990309
vt 0.597045 0.990309
vt 0.597045 0.009691
vt 0.597045 0.009691
vt 0.597045 0.009691
vt 0.597045 0.009691
vn -0.698948 0.000000 0.715172
vn -0.038418 0.000000 0.999262
vn -0.038418 0.000000 0.999262
vn -0.698948 0.000000 0.715172
vn 0.000000 1.000000 0.000000
vn 0.000000 1.000000 0.000000
vn 0.000000 1.000000 0.000000
vn 0.000000 1.000000 0.000000
vn -0.698948 0.000000 -0.715172
vn -0.038418 0.000000 -0.999262
vn -0.038418 0.000000 -0.999262
vn -0.698948 0.000000 -0.715172
vn 0.000000 -1.000000 0.000000
vn 0.000000 -1.000000 0.000000
vn 0.000000 -1.000000 0.000000
vn 0.000000 -1.000000 0.000000
vn 1.000000 0.000000 0.000000
vn 1.000000 0.000000 0.000000
vn 1.000000 0.000000 0.000000
vn 1.000000 0.000000 0.000000
vn -1.000000 0.000000 0.000000
vn -1.000000 0.000000 0.000000
vn -1.000000 0.000000 0.000000
vn -1.000000 0.000000 0.000000
vn -1.000000 0.000000 0.000000
vn -1.000000 0.000000 0.000000
vn 0.000000 -1.000000 0.000000
vn 0.000000 -1.000000 0.000000
vn 1.000000 0.000000 0.000000
vn 1.000000 0.000000 0.000000
vn 0.000000 1.000000 0.000000
vn 0.000000 1.000000 0.000000
vn 0.000000 1.000000 0.000000
vn 0.000000 1.000000 0.000000
vn 0.000000 1.000000 0.000000
vn 0.038009 0.000000 -0.999277
vn 0.038009 0.000000 -0.999277
vn 0.000000 -1.000000 0.000000
vn 0.000000 -1.000000 0.000000
vn 0.000000 -1.000000 0.000000
vn 0.038009 0.000000 0.999277
vn 0.038009 0.000000 0.999277
vn 0.000000 1.000000 0.000000
vn 0.000000 1.000000 0.000000
vn 0.000000 1.000000 0.000000
vn 0.608758 0.000000 -0.793356
vn 0.608758 0.000000 -0.793356
vn 0.000000 -1.000000 0.000000
vn 0.000000 -1.000000 0.000000
vn 0.000000 -1.000000 0.000000
vn 0.608758 0.000000 0.793356
vn 0.608758 0.000000 0.793356
vn 0.000000 1.000000 0.000000
vn 0.000000 1.000000 0.000000
vn 0.000000 1.000000 0.000000
vn 0.000000 1.000000 0.000000
vn -1.000000 0.000000 0.000000
vn -1.000000 0.000000 0.000000
vn 0.000000 -1.000000 0.000000
vn 0.000000 -1.000000 0.000000
vn 0.000000 -1.000000 0.000000
vn 0.000000 -1.000000 0.000000
vn 1.000000 0.000000 0.000000
vn 1.000000 0.000000 0.000000
s 1
f 1/9/1 18/29/2 13/22/3 3/12/4
s 2
f 3/4/5 13/21/6 14/23/7 9/17/8
s 3
f 5/13/9 15/24/10 16/27/11 7/16/12
s 4
f 10/18/13 17/28/14 18/30/15 1/1/16
s 5
f 2/2/17 11/19/18 12/20/19 4/3/20
s 6
f 10/18/21 1/1/22 3/4/23 9/17/24
f 29/45/25 10/18/21 9/17/24 28/44/26
s 4
f 29/45/27 30/46/28 17/28/14 10/18/13
s 5
f 12/20/19 11/19/18 32/48/29 25/41/30
s 2
f 9/17/8 14/23/7 27/43/31 28/44/32
f 13/21/6 19/31/33 20/33/34 14/23/7
f 27/43/31 14/23/7 20/33/34 26/42/35
s 3
f 16/27/11 15/24/10 21/34/36 22/37/37
s 4
f 17/28/14 30/46/28 31/47/38 23/38/39
f 18/30/15 17/28/14 23/38/39 24/40/40
s 1
f 13/22/3 18/29/2 24/39/41 19/32/42
s 2
f 19/31/33 4/3/43 12/20/44 20/33/34
f 26/42/35 20/33/34 12/20/44 25/41/45
s 3
f 22/37/37 21/34/36 6/14/46 8/15/47
s 4
f 23/38/39 31/47/38 32/48/48 11/19/49
f 24/40/40 23/38/39 11/19/49 2/2/50
s 1
f 19/32/42 24/39/41 2/10/51 4/11/52
s 2
f 21/35/53 26/42/35 25/41/45 6/5/54
f 15/25/55 27/43/31 26/42/35 21/35/53
f 28/44/32 27/43/31 15/25/55 5/6/56
s 6
f 7/8/57 29/45/25 28/44/26 5/6/58
s 4
f 7/8/59 16/26/60 30/46/28 29/45/27
f 31/47/38 30/46/28 16/26/60 22/36/61
f 32/48/48 31/47/38 22/36/61 8/7/62
s 5
f 25/41/30 32/48/29 8/7/63 6/5/64
